<?xml version="1.0" encoding="utf-8"?>
<!-- Generator: Adobe Illustrator 25.4.1, SVG Export Plug-In . SVG Version: 6.00 Build 0)  -->
<svg version="1.1" id="レイヤー_1" xmlns="http://www.w3.org/2000/svg" xmlns:xlink="http://www.w3.org/1999/xlink" x="0px"
	 y="0px" viewBox="0 0 629.2 147.8" style="enable-background:new 0 0 629.2 147.8;" xml:space="preserve">
<style type="text/css">
	.st0{fill:#E81E79;stroke:#FFFFFF;stroke-width:7.013;stroke-miterlimit:10;}
	.st1{fill:#E81E79;}
	.st2{fill:#E81E79;stroke:#FFFFFF;stroke-width:6.2748;stroke-miterlimit:10;}
	.st3{fill:#FFFFFF;}
</style>
<g>
	<g>
		<path class="st0" d="M124.1,16.3c-0.7,34.3-5.8,61.9-15.4,82.6c-13.3,29-34.8,43.6-64.5,43.6c-8.7,0-16.2-2.3-22.6-6.9
			c-7.1-5.2-10.6-11.9-10.6-20.3c0-5.8,2.1-11,6.2-15.4c4.2-4.4,9.2-6.6,15-6.6c3.8,0,7.1,1.2,9.7,3.5c2.6,2.3,4,5.3,4,9
			c0,3.6-1.2,6.7-3.5,9.2c-2.3,2.5-5.3,3.8-8.9,3.8c-4.3,0-7.7-1.2-10.3-3.6c-2.6-2.4-3.7-5.6-3.4-9.8c-2.4,1.9-3.5,5.2-3.5,10
			c0,6.4,2.7,11.7,8.1,15.7c4.9,3.6,10.7,5.4,17.4,5.4c34.8,0,53.5-38.4,56.1-115.2H3.5v-5.1L124.1,16.3L124.1,16.3z"/>
	</g>
	<g>
		<path class="st0" d="M544.6,76.9c0,9.9-4,17.5-11.9,23c-7,4.9-15.7,7.3-26,7.3h-56V3.5h18.8v32.9l70.6-9.5l0.4,4.1l-71,9.1v63.3
			H506c9.4,0,17.3-2,23.6-6c7.4-4.8,11.1-11.6,11.1-20.5c0-3.4-1-6.3-2.9-8.8c0.2,3-0.8,5.6-2.9,7.9s-4.7,3.3-7.7,3.3
			c-2.9,0-5.5-1-7.6-3.1c-2.1-2-3.2-4.5-3.2-7.5c0-3.2,1.1-5.8,3.2-7.7c2.1-2,4.8-2.9,8.1-2.9c5.1,0,9.2,1.9,12.5,5.6
			C543.1,67.4,544.6,71.8,544.6,76.9z"/>
	</g>
	<g>
		<path class="st0" d="M224.1,60.9c0,54.2-10.6,81.2-31.9,81.2c-4.3,0-8-1.3-11.1-4s-4.6-6.1-4.6-10.4c0-2.6,0.8-4.8,2.3-6.6
			c1.6-1.8,3.6-2.6,6.1-2.6c2.1,0,3.9,0.7,5.5,2.2c1.6,1.5,2.4,3.3,2.4,5.3c0,2.3-0.8,4.3-2.4,5.9s-3.6,2.4-5.9,2.4
			c-0.8,0-1.7-0.1-2.6-0.4c0.5,1.3,1.6,2.4,3.5,3.3s3.6,1.3,5.1,1.3c7.2,0,12.2-7,14.9-21.1c1.5-8.1,2.5-17.5,3-28.3
			c0.2-5.1,0.3-14.6,0.4-28.4L224.1,60.9L224.1,60.9z M275.4,133.2l-16,9.8c-12.4-20.2-19.2-47.6-20.5-82.4h3.2
			c2.4,15.3,6,28.3,10.9,39C258.1,110.9,265.6,122.1,275.4,133.2z"/>
		<path class="st0" d="M351.4,85.9c-1.7,16.3-6.1,29.3-13.1,39.2C329.8,137,318,143,302.9,143c-5.7,0-10.4-1.2-14.1-3.7
			c-4.3-2.8-6.5-7-6.5-12.4c0-3.9,1.2-7.1,3.7-9.8s5.6-4,9.5-4c2.3,0,4.2,0.8,5.8,2.3c1.6,1.5,2.4,3.4,2.4,5.7
			c0,2.1-0.8,3.9-2.5,5.5c-1.6,1.6-3.5,2.4-5.6,2.4c-2.5,0-4.5-0.8-6-2.5s-2.1-3.7-1.7-6.2c-1.7,1.9-2.6,4.1-2.6,6.8
			c0,4.1,1.7,7.3,5.1,9.6c3,2,6.6,3,11,3c10.6,0,18.9-6.1,24.9-18.4c4.1-8.4,6.9-19.2,8.4-32.3h-62.2v-2.9H351.4z M344.8,66.5h-67.4
			v-2.9h67.4V66.5z"/>
		<path class="st0" d="M436.6,104.1c0,12.3-3.5,21.9-10.4,28.9c-7,7-16.6,10.5-28.8,10.5c-6.1,0-11.2-1.4-15.2-4.1
			c-4.5-3.2-6.8-7.7-6.8-13.5c0-3.2,1.1-6.2,3.4-8.8c2.2-2.6,4.9-3.9,8.1-3.9c2.3,0,4.2,0.7,5.8,2.2s2.4,3.4,2.4,5.6
			c0,2.1-0.8,3.9-2.5,5.5c-1.6,1.6-3.5,2.4-5.6,2.4c-2.1,0-3.9-0.7-5.3-2.2s-2-3.2-1.9-5.4c-0.8,0.9-1.2,2.4-1.2,4.6
			c0,4.6,1.8,8.3,5.3,11c3.2,2.3,7.2,3.5,12,3.5c9.3,0,16.3-3.8,20.9-11.3c3.8-6.1,5.7-14.2,5.7-24.2V77.5h-49.2v32.3h-13.8V74.3
			h30.7V58.5h14.3v15.7h32.2L436.6,104.1L436.6,104.1z"/>
	</g>
	<g>
		<path class="st0" d="M625.7,107.6h-68.4V39.9h13v65h42.3V41.8c-6.5-1.9-12.7-2.8-18.7-2.8c-5,0-9.3,1.2-12.7,3.5
			c-4,2.6-5.9,6.3-5.9,11.1c0,3.7,0.9,6.3,2.8,7.8c-0.4-2.3,0.1-4.2,1.5-5.7c1.3-1.6,3.2-2.3,5.4-2.3c2,0,3.7,0.7,5.2,2.1
			c1.4,1.4,2.2,3.1,2.2,5.1c0,2-0.7,3.7-2.1,5.1c-1.4,1.4-3.1,2.1-5.1,2.1c-3.6,0-6.7-1.5-9.1-4.4c-2.3-2.8-3.4-6-3.4-9.7
			c0-5.8,2.3-10.3,7-13.4c4-2.6,9-4,15.2-4c4.5,0,9.8,0.7,15.7,2.1c2.4,0.6,7.5,2,15.3,4.2L625.7,107.6L625.7,107.6z"/>
	</g>
	<g>
		<path class="st1" d="M124.1,16.3c-0.7,34.3-5.8,61.9-15.4,82.6c-13.3,29-34.8,43.6-64.5,43.6c-8.7,0-16.2-2.3-22.6-6.9
			c-7.1-5.2-10.6-11.9-10.6-20.3c0-5.8,2.1-11,6.2-15.4c4.2-4.4,9.2-6.6,15-6.6c3.8,0,7.1,1.2,9.7,3.5c2.6,2.3,4,5.3,4,9
			c0,3.6-1.2,6.7-3.5,9.2c-2.3,2.5-5.3,3.8-8.9,3.8c-4.3,0-7.7-1.2-10.3-3.6c-2.6-2.4-3.7-5.6-3.4-9.8c-2.4,1.9-3.5,5.2-3.5,10
			c0,6.4,2.7,11.7,8.1,15.7c4.9,3.6,10.7,5.4,17.4,5.4c34.8,0,53.5-38.4,56.1-115.2H3.5v-5.1L124.1,16.3L124.1,16.3z"/>
	</g>
	<g>
		<path class="st1" d="M544.6,76.9c0,9.9-4,17.5-11.9,23c-7,4.9-15.7,7.3-26,7.3h-56V3.5h18.8v32.9l70.6-9.5l0.4,4.1l-71,9.1v63.3
			H506c9.4,0,17.3-2,23.6-6c7.4-4.8,11.1-11.6,11.1-20.5c0-3.4-1-6.3-2.9-8.8c0.2,3-0.8,5.6-2.9,7.9s-4.7,3.3-7.7,3.3
			c-2.9,0-5.5-1-7.6-3.1c-2.1-2-3.2-4.5-3.2-7.5c0-3.2,1.1-5.8,3.2-7.7c2.1-2,4.8-2.9,8.1-2.9c5.1,0,9.2,1.9,12.5,5.6
			C543.1,67.4,544.6,71.8,544.6,76.9z"/>
	</g>
	<g>
		<path class="st1" d="M224.1,60.9c0,54.2-10.6,81.2-31.9,81.2c-4.3,0-8-1.3-11.1-4s-4.6-6.1-4.6-10.4c0-2.6,0.8-4.8,2.3-6.6
			c1.6-1.8,3.6-2.6,6.1-2.6c2.1,0,3.9,0.7,5.5,2.2c1.6,1.5,2.4,3.3,2.4,5.3c0,2.3-0.8,4.3-2.4,5.9s-3.6,2.4-5.9,2.4
			c-0.8,0-1.7-0.1-2.6-0.4c0.5,1.3,1.6,2.4,3.5,3.3s3.6,1.3,5.1,1.3c7.2,0,12.2-7,14.9-21.1c1.5-8.1,2.5-17.5,3-28.3
			c0.2-5.1,0.3-14.6,0.4-28.4L224.1,60.9L224.1,60.9z M275.4,133.2l-16,9.8c-12.4-20.2-19.2-47.6-20.5-82.4h3.2
			c2.4,15.3,6,28.3,10.9,39C258.1,110.9,265.6,122.1,275.4,133.2z"/>
		<path class="st1" d="M351.4,85.9c-1.7,16.3-6.1,29.3-13.1,39.2C329.8,137,318,143,302.9,143c-5.7,0-10.4-1.2-14.1-3.7
			c-4.3-2.8-6.5-7-6.5-12.4c0-3.9,1.2-7.1,3.7-9.8s5.6-4,9.5-4c2.3,0,4.2,0.8,5.8,2.3c1.6,1.5,2.4,3.4,2.4,5.7
			c0,2.1-0.8,3.9-2.5,5.5c-1.6,1.6-3.5,2.4-5.6,2.4c-2.5,0-4.5-0.8-6-2.5s-2.1-3.7-1.7-6.2c-1.7,1.9-2.6,4.1-2.6,6.8
			c0,4.1,1.7,7.3,5.1,9.6c3,2,6.6,3,11,3c10.6,0,18.9-6.1,24.9-18.4c4.1-8.4,6.9-19.2,8.4-32.3h-62.2v-2.9H351.4z M344.8,66.5h-67.4
			v-2.9h67.4V66.5z"/>
		<path class="st1" d="M436.6,104.1c0,12.3-3.5,21.9-10.4,28.9c-7,7-16.6,10.5-28.8,10.5c-6.1,0-11.2-1.4-15.2-4.1
			c-4.5-3.2-6.8-7.7-6.8-13.5c0-3.2,1.1-6.2,3.4-8.8c2.2-2.6,4.9-3.9,8.1-3.9c2.3,0,4.2,0.7,5.8,2.2s2.4,3.4,2.4,5.6
			c0,2.1-0.8,3.9-2.5,5.5c-1.6,1.6-3.5,2.4-5.6,2.4c-2.1,0-3.9-0.7-5.3-2.2s-2-3.2-1.9-5.4c-0.8,0.9-1.2,2.4-1.2,4.6
			c0,4.6,1.8,8.3,5.3,11c3.2,2.3,7.2,3.5,12,3.5c9.3,0,16.3-3.8,20.9-11.3c3.8-6.1,5.7-14.2,5.7-24.2V77.5h-49.2v32.3h-13.8V74.3
			h30.7V58.5h14.3v15.7h32.2L436.6,104.1L436.6,104.1z"/>
	</g>
	<g>
		<path class="st1" d="M625.7,107.6h-68.4V39.9h13v65h42.3V41.8c-6.5-1.9-12.7-2.8-18.7-2.8c-5,0-9.3,1.2-12.7,3.5
			c-4,2.6-5.9,6.3-5.9,11.1c0,3.7,0.9,6.3,2.8,7.8c-0.4-2.3,0.1-4.2,1.5-5.7c1.3-1.6,3.2-2.3,5.4-2.3c2,0,3.7,0.7,5.2,2.1
			c1.4,1.4,2.2,3.1,2.2,5.1c0,2-0.7,3.7-2.1,5.1c-1.4,1.4-3.1,2.1-5.1,2.1c-3.6,0-6.7-1.5-9.1-4.4c-2.3-2.8-3.4-6-3.4-9.7
			c0-5.8,2.3-10.3,7-13.4c4-2.6,9-4,15.2-4c4.5,0,9.8,0.7,15.7,2.1c2.4,0.6,7.5,2,15.3,4.2L625.7,107.6L625.7,107.6z"/>
	</g>
	<g>
		<path class="st2" d="M187.6,63.8c-1.7,16.4-6.1,29.5-13.2,39.5c-8.5,12-20.4,18-35.6,18c-5.8,0-10.5-1.2-14.2-3.8
			c-4.4-2.8-6.6-7-6.6-12.5c0-3.9,1.2-7.2,3.7-9.9c2.5-2.7,5.6-4.1,9.5-4.1c2.3,0,4.2,0.8,5.8,2.3s2.4,3.4,2.4,5.7
			c0,2.1-0.8,3.9-2.5,5.5s-3.5,2.4-5.6,2.4c-2.5,0-4.5-0.8-6.1-2.6c-1.6-1.7-2.1-3.8-1.7-6.2c-1.7,1.9-2.6,4.2-2.6,6.9
			c0,4.2,1.7,7.4,5.1,9.7c3,2,6.7,3,11,3c10.7,0,19.1-6.2,25.1-18.5c4.1-8.5,6.9-19.3,8.4-32.6h-62.7v-2.9H187.6z M180.9,44.2H113
			v-2.9h67.9V44.2z"/>
	</g>
	<g>
		<path class="st1" d="M186.9,64.2c-1.7,16.3-6.1,29.3-13.1,39.2c-8.5,11.9-20.3,17.9-35.4,17.9c-5.7,0-10.4-1.2-14.1-3.7
			c-4.3-2.8-6.5-7-6.5-12.4c0-3.9,1.2-7.1,3.7-9.8c2.4-2.7,5.6-4,9.5-4c2.3,0,4.2,0.8,5.8,2.3c1.6,1.5,2.4,3.4,2.4,5.7
			c0,2.1-0.8,3.9-2.5,5.5c-1.6,1.6-3.5,2.4-5.6,2.4c-2.5,0-4.5-0.8-6.1-2.5s-2.1-3.7-1.7-6.2c-1.7,1.9-2.6,4.1-2.6,6.8
			c0,4.1,1.7,7.3,5.1,9.6c3,2,6.6,3,11,3c10.6,0,18.9-6.1,24.9-18.4c4.1-8.4,6.9-19.2,8.4-32.3h-62.2v-2.9
			C107.8,64.2,186.9,64.2,186.9,64.2z M180.3,44.7h-67.4v-2.9h67.4L180.3,44.7L180.3,44.7z"/>
	</g>
</g>
<rect x="625.7" y="107.6" class="st3" width="3.5" height="3.5"/>
</svg>
